<svg xmlns="http://www.w3.org/2000/svg" viewBox="0 0 114.85 166.52"><title>アセット 1</title><g id="レイヤー_2" data-name="レイヤー 2"><g id="レイヤー_1-2" data-name="レイヤー 1"><path d="M57.42,4.07l1.85,2.34c.14.17,13.41,17,26.41,37.33,17.68,27.61,26.65,48.36,26.65,61.7,0,32.29-24.63,58.56-54.91,58.56s-54.9-26.27-54.9-58.56c0-13.34,9-34.09,26.65-61.7,13-20.3,26.27-37.16,26.4-37.33l1.85-2.34m0-4.07L53.59,4.85C53.46,5,40.16,21.91,27,42.38,9.1,70.4,0,91.61,0,105.44c0,33.68,25.76,61.08,57.42,61.08s57.43-27.4,57.43-61.08c0-13.83-9.1-35-27-63.06C74.69,21.91,61.39,5,61.25,4.85L57.42,0Z" /><path d="M112.7,105.74a40.87,40.87,0,0,0-41.85,8.58h0a18.54,18.54,0,0,0-4.3,6.23,20.85,20.85,0,0,0-1.63,7.29,22.37,22.37,0,0,0,.94,7.4,20.8,20.8,0,0,0,3.39,6.63h0a23.3,23.3,0,0,0,12.88,8.4,30.59,30.59,0,0,0,7.32.86A18,18,0,0,1,76,152.44c-5.23-1.59-9.83-5.87-12.74-11.84A26.42,26.42,0,0,1,61.35,122c1.07-3.85,3.31-7,5.75-10.38a59.4,59.4,0,0,0,5.19-7.89c4.06-8,4.85-17.3,1.39-25C70.83,72.33,65.6,66.7,58,62.17l-.77-.45-.76.45C48.8,66.7,43.57,72.33,40.73,78.68c-3.47,7.73-2.68,17.07,1.38,25a59.4,59.4,0,0,0,5.19,7.89C49.75,115,52,118.13,53.05,122a26.47,26.47,0,0,1-1.93,18.62c-2.92,6-7.51,10.25-12.75,11.84A18,18,0,0,1,25,151.15a30.53,30.53,0,0,0,7.32-.86,23.33,23.33,0,0,0,12.89-8.4h0a20.78,20.78,0,0,0,3.38-6.63,22.11,22.11,0,0,0,.94-7.4,20.85,20.85,0,0,0-1.63-7.29,18.54,18.54,0,0,0-4.3-6.23h0a40.86,40.86,0,0,0-41.84-8.58l-1.27.47c.19.44.39.88.59,1.31a76.22,76.22,0,0,0,11.21,18,51.77,51.77,0,0,0,15,12.5,8.83,8.83,0,0,0,7.63.75,9.5,9.5,0,0,0,5-4.93,11.69,11.69,0,0,0,.89-7.34,10.58,10.58,0,0,0-4.6-6.72,48.87,48.87,0,0,0-19.43-7.71l-2.18-.36c.3.73.6,1.45.89,2.17a30.87,30.87,0,0,0,7,10.43,26.66,26.66,0,0,0,10.07,6.2c.19-.86.39-1.71.59-2.57a25.54,25.54,0,0,1-14.36-12.78,46.81,46.81,0,0,1,16.17,6.9,8.12,8.12,0,0,1,2.86,10.46c-1.56,3.33-5,5.54-9.63,3.07C18.54,130.47,10,120.77,4,107.83a38.36,38.36,0,0,1,38,8.52A17,17,0,0,1,47.12,128,18.44,18.44,0,0,1,43.47,140c-7.16,9.09-17.27,8.49-21.26,8.37-.5,0-.89,0-1.19,0a2.11,2.11,0,0,0-.49.05,1.26,1.26,0,0,0-.93,1,1.7,1.7,0,0,0,.67,1.7,22.53,22.53,0,0,0,9.19,4.35,19.13,19.13,0,0,0,9.51-.42c5.78-1.77,10.86-6.49,14.12-13.09a31.51,31.51,0,0,0,3-9.94,27.91,27.91,0,0,0-.71-10.82c-1.17-4.31-3.64-7.85-6.1-11.24a55.73,55.73,0,0,1-4.9-7.49c-3.65-7.25-4.3-15.72-1.14-22.68,2.58-5.67,7.23-10.73,14-14.89,6.74,4.16,11.39,9.22,14,14.89,3.16,7,2.52,15.43-1.14,22.68A56.64,56.64,0,0,1,65.14,110c-2.47,3.39-4.93,6.93-6.1,11.24A27.73,27.73,0,0,0,58.32,132a31.51,31.51,0,0,0,3,9.94c3.27,6.6,8.35,11.32,14.12,13.09a18.74,18.74,0,0,0,4.39.79,19.65,19.65,0,0,0,5.12-.37,22.53,22.53,0,0,0,9.19-4.35,1.68,1.68,0,0,0,.67-1.7,1.23,1.23,0,0,0-.92-1,2.27,2.27,0,0,0-.5-.05c-.29,0-.69,0-1.18,0-4,.12-14.1.72-21.26-8.37A18.33,18.33,0,0,1,67.29,128a16.93,16.93,0,0,1,5.16-11.61,38.37,38.37,0,0,1,38-8.52c-6,12.94-14.58,22.64-24.13,27.76-4.59,2.47-8.06.26-9.63-3.07a8.12,8.12,0,0,1,2.87-10.46,46.69,46.69,0,0,1,16.16-6.9,25.54,25.54,0,0,1-14.36,12.78c.2.86.4,1.71.59,2.57A26.66,26.66,0,0,0,92,124.31a30.87,30.87,0,0,0,7-10.43c.29-.72.59-1.44.89-2.17l-2.18.36a48.92,48.92,0,0,0-19.43,7.71,10.58,10.58,0,0,0-4.6,6.72,11.76,11.76,0,0,0,.89,7.34,9.5,9.5,0,0,0,5,4.93,8.86,8.86,0,0,0,7.64-.75,51.74,51.74,0,0,0,15-12.5,76.25,76.25,0,0,0,11.22-18l.59-1.31Z" /><path d="M65.32,100c2.84-5.78,3.25-12.45.73-17.84a27.6,27.6,0,0,0-8-9.72l-.89-.7-.89.7a27.37,27.37,0,0,0-8,9.72c-2.53,5.4-2.12,12.06.72,17.84a29,29,0,0,0,2.22,3.69,3.89,3.89,0,0,0,4.09,1.67,3.87,3.87,0,0,0,3-3.14c1.21-6.19.25-17,.19-17.46L55.86,85c0,.11,1.06,10.87,0,16.68a1.25,1.25,0,0,1-1,1,1.38,1.38,0,0,1-1.47-.59,26.75,26.75,0,0,1-2-3.34c-2.45-5.06-2.77-10.85-.57-15.49a24.48,24.48,0,0,1,6.38-8.07,24.64,24.64,0,0,1,6.39,8.07c2.19,4.64,1.87,10.43-.58,15.49Z" /></g></g></svg>